<svg id="Layer_1" enable-background="new 0 0 512 512" height="512" viewBox="0 0 512 512" width="512" xmlns="http://www.w3.org/2000/svg"><path d="m209.944 7.5h92.112v39.653h-92.112z" fill="#8ee6f3"/><path d="m468.657 379h-425.314c-19.796 0-35.843-14.985-35.843-34.78v-261.224c0-19.795 16.047-35.843 35.843-35.843h425.315c19.795 0 35.843 16.047 35.843 35.843v261.224c-.001 19.795-16.048 34.78-35.844 34.78z" fill="#f7f3f1"/><path d="m468.657 47.153h-40.5c19.795 0 35.843 16.047 35.843 35.843v261.224c0 19.795-16.047 34.78-35.843 34.78h40.5c19.795 0 35.843-14.985 35.843-34.78v-261.224c0-19.795-16.047-35.843-35.843-35.843z" fill="#ebe1dc"/><path d="m439.674 415h-367.348c-11.226 0-20.326-9.1-20.326-20.326v-15.674h408v15.674c0 11.226-9.1 20.326-20.326 20.326z" fill="#8ee6f3"/><circle cx="254" cy="484.5" fill="#ffd36c" r="20"/><circle cx="133.518" cy="175.482" fill="#fa9084" r="73.482"/><path d="m194.99 135.212c-13.122-20.004-35.734-33.212-61.472-33.212-12.999 0-25.195 3.38-35.783 9.289l35.783 64.193z" fill="#ffd36c"/><path d="m207 175.482c0-14.878-4.424-28.706-12.01-40.27l-61.472 40.27.409 73.472c40.427-.222 73.073-32.993 73.073-73.472z" fill="#4ed5ea"/><path d="m270.964 194h39.119v126.106h-39.119z" fill="#ffd36c"/><path d="m424.917 163.106h39.119v157h-39.119z" fill="#4ed5ea"/><path d="m347.94 229.106h39.119v91h-39.119z" fill="#72e4a0"/><g fill="#909ec0"><circle cx="290.524" cy="130" r="13"/><circle cx="367.5" cy="184" r="13"/><circle cx="444.476" cy="104" r="13"/></g><path d="m214.5 175.482c0-8.456-1.5-26.482-14.024-45.492-14.251-21.631-39.157-35.49-66.958-35.49-24.035 0-46.891 10.837-62.239 29.253-11.421 13.962-18.279 31.802-18.279 51.247 0 44.735 36.265 81 81 81 19.523 0 37.431-6.909 51.417-18.413 17.765-14.862 29.083-37.183 29.083-62.105zm-88.482 65.543c-32.862-3.737-58.481-31.698-58.481-65.543 0-22.151 10.983-41.772 27.777-53.745l30.704 55.676zm-17.584-126.559c7.738-3.193 16.206-4.966 25.084-4.966 20.744 0 39.272 9.631 51.377 24.646l-48.653 30.743zm32.584 126.559v-61.411l51.918-32.806c4.204 8.676 6.564 18.404 6.564 28.674 0 33.846-25.62 61.806-58.482 65.543z"/><path d="m468.657 39.653h-159.101v-32.153c0-4.142-3.357-7.5-7.5-7.5h-92.111c-4.143 0-7.5 3.358-7.5 7.5v32.153h-87.445c-9.675 0-9.675 15 0 15h353.658c15.628 0 28.343 12.714 28.343 28.343v261.224c0 15.297-12.449 27.28-28.343 27.28h-425.315c-15.894 0-28.343-11.983-28.343-27.28v-261.224c0-15.628 12.715-28.343 28.343-28.343h30.657c9.675 0 9.675-15 0-15h-30.657c-23.9 0-43.343 19.444-43.343 43.343v261.224c0 23.708 19.038 42.28 43.343 42.28h1.157v8.174c0 15.343 12.482 27.826 27.826 27.826h174.174v35.548c-11.528 3.274-20 13.889-20 26.452 0 15.164 12.337 27.5 27.5 27.5s27.5-12.336 27.5-27.5c0-12.563-8.472-23.178-20-26.452v-35.548h109.5c9.674 0 9.674-15 0-15h-298.674c-7.072 0-12.826-5.754-12.826-12.826v-8.174h393v8.174c0 7.072-5.754 12.826-12.826 12.826h-29.674c-9.674 0-9.674 15 0 15h29.674c15.344 0 27.826-12.483 27.826-27.826v-8.174h1.157c24.305 0 43.343-18.572 43.343-42.28v-261.224c0-23.899-19.443-43.343-43.343-43.343zm-251.213 0v-24.653h77.111v24.653zm49.056 444.847c0 6.893-5.607 12.5-12.5 12.5s-12.5-5.607-12.5-12.5 5.607-12.5 12.5-12.5 12.5 5.607 12.5 12.5z"/><path d="m214.5 284.535c0-4.142-3.357-7.5-7.5-7.5h-146.964c-9.386 0-9.813 15 0 15h146.964c4.143 0 7.5-3.358 7.5-7.5z"/><path d="m60.036 312.606c-9.386 0-9.813 15 0 15h100.16c9.386 0 9.813-15 0-15z"/><path d="m263.464 194v126.106c0 4.142 3.357 7.5 7.5 7.5h39.119c4.143 0 7.5-3.358 7.5-7.5v-126.106c0-4.142-3.357-7.5-7.5-7.5h-39.119c-4.143 0-7.5 3.358-7.5 7.5zm15 7.5h24.119v111.106h-24.119z"/><path d="m417.417 163.106v157c0 4.142 3.357 7.5 7.5 7.5h39.119c4.143 0 7.5-3.358 7.5-7.5v-157c0-4.142-3.357-7.5-7.5-7.5h-39.119c-4.143 0-7.5 3.358-7.5 7.5zm15 7.5h24.119v142h-24.119z"/><path d="m347.94 221.606c-4.143 0-7.5 3.358-7.5 7.5v91c0 4.142 3.357 7.5 7.5 7.5h39.119c4.143 0 7.5-3.358 7.5-7.5v-91c0-4.142-3.357-7.5-7.5-7.5zm31.62 91h-24.12v-76h24.119v76z"/><path d="m290.523 109.5c-11.304 0-20.5 9.196-20.5 20.5s9.196 20.5 20.5 20.5c4.07 0 7.857-1.206 11.049-3.26l45.775 33.087c-.216 1.194-.347 2.418-.347 3.673 0 11.304 9.196 20.5 20.5 20.5s20.5-9.196 20.5-20.5c0-2.413-.441-4.719-1.21-6.871l51.11-53.731c2.068.703 4.274 1.102 6.577 1.102 11.304 0 20.5-9.196 20.5-20.5s-9.196-20.5-20.5-20.5-20.5 9.196-20.5 20.5c0 3.507.888 6.809 2.447 9.699l-49.55 52.091c-2.813-1.454-5.995-2.29-9.373-2.29-4.573 0-8.787 1.524-12.201 4.065l-44.939-32.482c.418-1.629.664-3.326.664-5.083-.002-11.304-9.198-20.5-20.502-20.5zm0 26c-3.033 0-5.5-2.467-5.5-5.5s2.467-5.5 5.5-5.5 5.5 2.467 5.5 5.5-2.466 5.5-5.5 5.5zm153.954-37c3.033 0 5.5 2.467 5.5 5.5s-2.467 5.5-5.5 5.5c-2.889 0-5.5-2.624-5.5-5.5 0-3.033 2.466-5.5 5.5-5.5zm-76.977 80c2.938 0 5.5 2.541 5.5 5.5 0 3.033-2.467 5.5-5.5 5.5s-5.5-2.467-5.5-5.5 2.467-5.5 5.5-5.5z"/></svg>